<svg width="512" height="512" viewBox="0 0 512 512" fill="none" xmlns="http://www.w3.org/2000/svg">
<rect width="512" height="512" rx="72" fill="#23294D"/>
<path d="M91.5483 147.526L198.572 217.028L224.959 303.798L117.936 234.296L91.5483 147.526Z" fill="white"/>
<path d="M421.985 362.114L314.961 292.612L224.96 303.798L331.983 373.3L421.985 362.114Z" fill="white"/>
<path d="M224.958 303.8L166.626 311.05L242.06 360.037L224.958 303.8Z" fill="white"/>
<path d="M328.765 245.871L328.768 245.873L303.322 285.057L303.319 285.055L231.319 294.004L210.208 224.587L210.211 224.59L235.657 185.406L235.654 185.404L307.655 176.456L328.765 245.871ZM277.66 222.651C270.711 218.138 261.418 220.112 256.904 227.062C252.391 234.012 254.367 243.305 261.316 247.818C268.266 252.331 277.559 250.356 282.072 243.406C286.585 236.456 284.61 227.164 277.66 222.651Z" fill="white"/>
</svg>
