<svg width="434" height="374" viewBox="0 0 434 374" fill="none" xmlns="http://www.w3.org/2000/svg">
<path d="M185.959 234.798L78.9363 165.297L52.5483 78.5259L159.571 148.027L185.959 234.798Z" fill="#94A3B8"/>
<path d="M185.959 234.798L78.9363 165.297L52.5483 78.5259L159.571 148.027L185.959 234.798Z" stroke="white"/>
<path d="M185.959 234.799L292.982 304.3L382.985 293.114L275.962 223.612L185.959 234.799Z" fill="#94A3B8"/>
<path d="M185.959 234.799L292.982 304.3L382.985 293.114L275.962 223.612L185.959 234.799Z" stroke="white"/>
<path d="M127.626 242.05L185.957 234.8L203.06 291.037L127.626 242.05Z" fill="#94A3B8"/>
<path d="M127.626 242.05L185.957 234.8L203.06 291.037L127.626 242.05Z" stroke="white"/>
<path d="M289.765 176.871L289.769 176.873L264.323 216.057L264.319 216.055L192.319 225.004L171.208 155.587L171.211 155.59L196.657 116.406L196.654 116.404L268.655 107.456L289.765 176.871ZM238.66 153.651C231.711 149.138 222.418 151.112 217.905 158.062C213.391 165.012 215.367 174.305 222.316 178.818C229.266 183.331 238.559 181.356 243.072 174.406C247.585 167.456 245.61 158.164 238.66 153.651Z" fill="#94A3B8"/>
</svg>
