<svg width="864" height="277" viewBox="0 0 864 277" fill="none" xmlns="http://www.w3.org/2000/svg">
<g clip-path="url(#clip0_71_1584)">
<path d="M37.1213 65.4915L108.878 112.091L125.373 172.112L53.6162 125.513L37.1213 65.4915Z" fill="#94A3B8"/>
<path d="M258.67 209.367L186.914 162.768L125.373 172.112L197.129 218.711L258.67 209.367Z" fill="#94A3B8"/>
<path d="M125.371 172.113L85.4857 178.169L136.062 211.013L125.371 172.113Z" fill="#94A3B8"/>
<path d="M197.128 129.955L197.129 129.956L179.111 157.702L179.109 157.701L129.876 165.177L116.68 117.159L116.682 117.16L134.7 89.4141L134.698 89.4131L183.932 81.9378L197.128 129.955ZM162.535 114.889C157.747 111.78 151.343 113.141 148.234 117.929C145.124 122.718 146.485 129.121 151.274 132.231C156.062 135.341 162.465 133.979 165.575 129.191C168.684 124.402 167.324 117.999 162.535 114.889Z" fill="#94A3B8"/>
<path d="M391.312 201.765H371.344V145.285C371.344 137.171 369.062 131.339 364.498 127.79C360.061 124.24 354.8 122.465 348.714 122.465C344.024 122.465 339.65 123.86 335.593 126.649C331.663 129.438 329 133.875 327.606 139.96V201.765H307.638V68.6477H327.606V115.809C331.029 112.386 334.896 109.724 339.206 107.822C343.517 105.794 348.144 104.779 353.088 104.779C358.666 104.779 364.308 105.984 370.013 108.393C375.845 110.675 380.853 114.795 385.036 120.753C389.22 126.712 391.312 134.762 391.312 144.905V201.765ZM487.893 106.681H507.86V201.765H487.893V190.164C483.456 194.602 478.321 198.088 472.489 200.624C466.784 203.032 460.826 204.237 454.614 204.237C445.105 204.237 436.738 202.081 429.512 197.771C422.285 193.334 416.644 187.375 412.587 179.895C408.657 172.289 406.692 163.795 406.692 154.413C406.692 145.031 408.657 136.537 412.587 128.931C416.644 121.324 422.285 115.365 429.512 111.055C436.738 106.618 445.105 104.399 454.614 104.399C460.826 104.399 466.784 105.667 472.489 108.202C478.321 110.611 483.456 114.034 487.893 118.471V106.681ZM456.896 185.03C462.601 185.03 467.798 183.699 472.489 181.036C477.307 178.374 481.047 174.697 483.709 170.007C486.498 165.316 487.893 160.055 487.893 154.223C487.893 148.391 486.498 143.193 483.709 138.629C481.047 133.938 477.307 130.325 472.489 127.79C467.798 125.127 462.601 123.796 456.896 123.796C451.191 123.796 445.993 125.127 441.302 127.79C436.738 130.325 433.125 133.938 430.462 138.629C427.927 143.32 426.659 148.581 426.659 154.413C426.659 160.245 427.927 165.506 430.462 170.197C433.125 174.888 436.738 178.564 441.302 181.227C445.993 183.762 451.191 185.03 456.896 185.03ZM620.262 170.767L640.04 106.681H661.148L630.341 201.765H610.183L590.216 139.009L570.439 201.765H550.661L520.615 106.681H541.533L560.55 170.577L579.567 106.681H600.865L620.262 170.767ZM766.946 201.765H741.844L712.749 163.921L697.726 180.276V201.765H677.758V68.6477H697.726V150.99L737.661 106.681H765.425L726.441 149.088L766.946 201.765Z" fill="white"/>
</g>
<defs>
<clipPath id="clip0_71_1584">
<rect width="864" height="276.529" fill="white"/>
</clipPath>
</defs>
</svg>
